{"title":"Pro Dia Nascer Feliz AKA For a Better Day (2005)","uid":12542615,"size":1569699518,"categoryP":"video","categoryS":"movies","magnet":"?xt=urn:btih:a4aa3e5e640aa70ab21d4270c9677a168efbe429&amp;dn=Pro+Dia+Nascer+Feliz+AKA+For+a+Better+Day+%282005%29&amp;tr=udp%3A%2F%2Ftracker.leechers-paradise.org%3A6969&amp;tr=udp%3A%2F%2Fzer0day.ch%3A1337&amp;tr=udp%3A%2F%2Fopen.demonii.com%3A1337&amp;tr=udp%3A%2F%2Ftracker.coppersurfer.tk%3A6969&amp;tr=udp%3A%2F%2Fexodus.desync.com%3A6969","seeders":1,"leechers":0,"uploader":"niarfe","files":1,"time":1444420321,"description":"Pro Dia Nascer Feliz AKA For a Better Day (2005) \nhttp://www.imdb.com/title/tt1319731\r\n\r\nPro Dia Nascer Feliz&quot; is João Jardim's second feature film. He directed the cult documentary, &quot;Janela da Alma&quot;, that in 2002 broke audience records for its genre. While investigating the teenager's school relations - a fundamental environment for someone's education - besides the usual issues that any teenager has in school, the director brings to light themes like social differences and the impact of violence transformed into commonplace in many of young people's development.\r\n\r\nGeneral\r\nComplete name                            : Pro.Dia.Nascer.Feliz.2005.DVDrip.x264-Pedotriba.mkv\r\nFormat                                   : Matroska\r\nFormat version                           : Version 2\r\nFile size                                : 1.46 GiB\r\nDuration                                 : 1h 28mn\r\nOverall bit rate                         : 2 362 Kbps\r\nWriting application                      : HandBrake 6548svn 2014112401\r\nWriting library                          : Lavf55.12.0\r\n\r\nVideo\r\nFormat                                   : AVC\r\nFormat/Info                              : Advanced Video Codec\r\nFormat profile                           :   \r\nFormat settings, CABAC                   : Yes\r\nFormat settings, ReFrames                : 12 frames\r\nCodec ID                                 : V_MPEG4/ISO/AVC\r\nDuration                                 : 1h 28mn\r\nBit rate                                 : 2 150 Kbps\r\nWidth                                    : 716 pixels\r\nHeight                                   : 362 pixels\r\nDisplay aspect ratio                     : 16:9\r\nOriginal display aspect ratio            : 16:9\r\nFrame rate mode                          : Constant\r\nFrame rate                               : 23.976 fps\r\nColor space                              : YUV\r\nChroma subsampling                       : 4:2:0\r\nBit depth                                : 8 bits\r\nScan type                                : Progressive\r\nBits/(Pixel*Frame)                       : 0.346\r\nStream size                              : 1.31 GiB (90%)\r\nWriting library                          : x264 core 142 r2479 dd79a61\r\nForced                                   : No\r\nColor range                              : Limited\r\nColor primaries                          : BT.601 NTSC\r\nTransfer characteristics                 : BT.709\r\nMatrix coefficients                      : BT.601\r\n\r\nAudio\r\nFormat                                   : AC-3\r\nFormat/Info                              : Audio Coding 3\r\nMode extension                           : CM (complete main)\r\nFormat settings, Endianness              : Big\r\nCodec ID                                 : A_AC3\r\nDuration                                 : 1h 28mn\r\nBit rate mode                            : Constant\r\nBit rate                                 : 192 Kbps\r\nChannel(s)                               : 2 channels\r\nChannel positions                        : Front: L R\r\nSampling rate                            : 48.0 KHz\r\nCompression mode                         : Lossy\r\nStream size                              : 122 MiB (8%)\r\nTitle                                    : Stereo\r\nDefault                                  : Yes\r\nForced                                   : No","torrent":{"xt":"urn:btih:a4aa3e5e640aa70ab21d4270c9677a168efbe429","amp;dn":"Pro+Dia+Nascer+Feliz+AKA+For+a+Better+Day+%282005%29","amp;tr":["udp%3A%2F%2Ftracker.leechers-paradise.org%3A6969","udp%3A%2F%2Fzer0day.ch%3A1337","udp%3A%2F%2Fopen.demonii.com%3A1337","udp%3A%2F%2Ftracker.coppersurfer.tk%3A6969","udp%3A%2F%2Fexodus.desync.com%3A6969"],"infoHash":"a4aa3e5e640aa70ab21d4270c9677a168efbe429","infoHashBuffer":{"type":"Buffer","data":[164,170,62,94,100,10,167,10,178,29,66,112,201,103,122,22,142,251,228,41]},"announce":[],"urlList":[]}}